<svg width="22" height="22" viewBox="0 0 22 22" fill="none" xmlns="http://www.w3.org/2000/svg">
<circle cx="10.0833" cy="10.0833" r="8.25" stroke="#172839" stroke-width="1.5"/>
<path d="M19.9943 19.2269C19.9369 19.3137 19.833 19.4175 19.6253 19.6253C19.4175 19.833 19.3137 19.9369 19.2269 19.9943C18.7185 20.331 18.0308 20.1575 17.7429 19.62C17.6938 19.5282 17.6516 19.3875 17.5673 19.1061C17.4752 18.7986 17.4291 18.6448 17.4202 18.5366C17.3678 17.8996 17.8996 17.3678 18.5366 17.4202C18.6448 17.4291 18.7986 17.4752 19.1061 17.5673C19.3875 17.6516 19.5282 17.6938 19.62 17.7429C20.1575 18.0308 20.331 18.7185 19.9943 19.2269Z" stroke="#172839" stroke-width="1.5" stroke-linecap="round"/>
</svg>
